<?xml version="1.0" encoding="utf-8"?>
<!-- Generator: Adobe Illustrator 16.0.0, SVG Export Plug-In . SVG Version: 6.00 Build 0)  -->
<!DOCTYPE svg PUBLIC "-//W3C//DTD SVG 1.1//EN" "http://www.w3.org/Graphics/SVG/1.1/DTD/svg11.dtd">
<svg version="1.1" id="sc_logo" width="382px" height="90px" xmlns="http://www.w3.org/2000/svg" xmlns:xlink="http://www.w3.org/1999/xlink" viewBox="0 0 382 89" enable-background="new 0 0 382 89" preserveAspectRatio="xMinYMin meet">
<g id="g14" transform="scale(1)">
	<g id="g20" transform="translate(135.2983,230.187)">
		<path id="path22" fill="#454E63" d="M-97.9-157.9c-4,0-7.7-0.6-11.3-1.8c-3.6-1.2-6.7-3.1-9.5-5.5l6.8-8.2
			c4.4,3.5,9.2,5.3,14.4,5.3c1.6,0,2.9-0.3,3.8-0.8c0.9-0.5,1.3-1.3,1.3-2.2v-0.1c0-0.5-0.1-0.9-0.3-1.2c-0.2-0.4-0.6-0.7-1.2-1
			c-0.6-0.3-1.3-0.7-2.3-1c-0.9-0.3-2.2-0.6-3.7-1c-2.4-0.5-4.6-1.1-6.6-1.8c-2-0.7-3.8-1.5-5.3-2.5c-1.5-1-2.7-2.3-3.5-3.9
			c-0.9-1.5-1.3-3.4-1.3-5.7v-0.1c0-2.1,0.4-4,1.2-5.7c0.8-1.7,1.9-3.2,3.4-4.5c1.5-1.3,3.3-2.2,5.4-2.9c2.1-0.7,4.5-1,7.2-1
			c3.8,0,7.2,0.5,10.2,1.5c3,1,5.7,2.5,8.1,4.4l-6.1,8.7c-2-1.4-4.1-2.5-6.2-3.3c-2.1-0.7-4.2-1.1-6.2-1.1c-1.5,0-2.6,0.3-3.3,0.8
			c-0.7,0.5-1.1,1.2-1.1,2v0.1c0,0.5,0.1,0.9,0.3,1.3c0.2,0.4,0.6,0.7,1.2,1c0.6,0.3,1.4,0.6,2.3,0.9c1,0.3,2.2,0.6,3.8,1
			c2.5,0.5,4.8,1.2,6.9,1.9c2,0.7,3.8,1.6,5.2,2.7c1.4,1.1,2.5,2.3,3.3,3.8c0.8,1.5,1.1,3.3,1.1,5.3v0.1c0,2.3-0.4,4.3-1.3,6.1
			c-0.9,1.8-2.1,3.3-3.6,4.5c-1.6,1.2-3.4,2.2-5.6,2.8C-92.7-158.2-95.2-157.9-97.9-157.9"/>
	</g>
	<g id="g24" transform="translate(158.9941,281.2695)">
		<path id="path26" fill="#00B3FF" d="M-88.1-281.3h-42v0.2v9.5h32.4v31.2h9.6V-281.3z"/>
	</g>
	<g id="g28" transform="translate(115.6719,225.5459)">
		<path id="path30" fill="#00B3FF" d="M-106-146.7v-50.2h-9.6v59.8h58.1v-9.6H-106z"/>
	</g>
	<g id="g32" transform="translate(127.0415,263.2876)">
		<path id="path34" fill="#454E63" d="M-101.3-237.8v-15.8v-9.5l-9.6,9.5l-6.4,6.3l-9.6,9.5h9.6H-101.3z"/>
	</g>
	<g id="g36" transform="translate(162.7827,235.9888)">
		<path id="path38" fill="#454E63" d="M-86.5-171.9c1.6,0,2.9-0.6,4-1.7c1.1-1.1,1.6-2.7,1.6-4.5v-0.1c0-1.8-0.5-3.3-1.6-4.5
			c-1.1-1.1-2.4-1.7-4-1.7c-0.8,0-1.5,0.2-2.2,0.5c-0.7,0.3-1.3,0.7-1.8,1.3s-0.9,1.2-1.2,2c-0.3,0.7-0.4,1.6-0.4,2.5v0.1
			c0,0.9,0.1,1.7,0.4,2.5c0.3,0.8,0.7,1.4,1.2,2s1.1,1,1.8,1.3C-88-172.1-87.3-171.9-86.5-171.9 M-101.5-191.9h9.7v3.6
			c0.5-0.6,1-1.1,1.5-1.6c0.5-0.5,1.1-1,1.8-1.3c0.7-0.4,1.4-0.7,2.2-0.9c0.8-0.2,1.7-0.4,2.8-0.4c1.6,0,3.2,0.3,4.6,1
			c1.5,0.7,2.8,1.6,3.9,2.8c1.1,1.2,2,2.7,2.7,4.5c0.7,1.8,1,3.7,1,5.9v0.1c0,2.2-0.3,4.2-1,6c-0.7,1.8-1.5,3.3-2.6,4.5
			c-1.1,1.2-2.4,2.2-3.8,2.8s-3,1-4.6,1c-1,0-2-0.1-2.8-0.3c-0.8-0.2-1.6-0.5-2.2-0.9c-0.7-0.4-1.3-0.8-1.8-1.3
			c-0.5-0.5-1-1-1.5-1.5v20.3h-9.7V-191.9z"/>
	</g>
	<g id="g40" transform="translate(186.2974,236.0601)">
		<path id="path42" fill="#454E63" d="M-76.7-172.1c0.9,0,1.7-0.2,2.4-0.5c0.7-0.3,1.3-0.8,1.8-1.3c0.5-0.6,0.9-1.2,1.1-1.9
			c0.3-0.7,0.4-1.5,0.4-2.3v-0.1c0-0.8-0.1-1.6-0.4-2.4c-0.3-0.7-0.7-1.4-1.2-1.9c-0.5-0.6-1.1-1-1.8-1.3c-0.7-0.3-1.5-0.5-2.3-0.5
			c-0.9,0-1.7,0.2-2.4,0.5c-0.7,0.3-1.3,0.8-1.8,1.3c-0.5,0.6-0.9,1.2-1.1,1.9c-0.3,0.7-0.4,1.5-0.4,2.3v0.1c0,0.8,0.1,1.6,0.4,2.4
			c0.3,0.7,0.7,1.4,1.2,1.9c0.5,0.6,1.1,1,1.8,1.3C-78.4-172.3-77.6-172.1-76.7-172.1 M-76.8-163.9c-2.2,0-4.2-0.4-6.1-1.1
			c-1.8-0.7-3.4-1.8-4.8-3.1c-1.4-1.3-2.4-2.8-3.1-4.5c-0.7-1.7-1.1-3.6-1.1-5.5v-0.1c0-2,0.4-3.8,1.1-5.5c0.8-1.7,1.8-3.3,3.2-4.6
			c1.3-1.3,3-2.3,4.8-3.1c1.9-0.8,3.9-1.1,6.1-1.1c2.2,0,4.2,0.4,6.1,1.1c1.8,0.8,3.4,1.8,4.8,3.1c1.4,1.3,2.4,2.8,3.1,4.5
			c0.7,1.7,1.1,3.6,1.1,5.5v0.1c0,2-0.4,3.8-1.1,5.5c-0.8,1.7-1.8,3.3-3.2,4.6c-1.4,1.3-3,2.3-4.8,3.1
			C-72.6-164.3-74.6-163.9-76.8-163.9"/>
	</g>
	<g id="g44" transform="translate(199.835,250.0996)">
		<path id="path46" fill="#454E63" d="M-71.1-206h9.7v5.5c0.8-1.9,1.8-3.3,3.2-4.5c1.3-1.1,3.2-1.6,5.5-1.5v10.1h-0.8
			c-2.5,0-4.5,0.7-5.8,2.2c-1.4,1.5-2,3.8-2,7v8.5h-9.7V-206z"/>
	</g>
	<g id="g48" transform="translate(222.897,230.3301)">
		<path id="path50" fill="#454E63" d="M-61.5-158.3c-2.9,0-5.2-0.7-6.8-2.1c-1.6-1.4-2.4-3.7-2.4-7v-11.1h-3.2v-7.8h3.2v-6.9h9.7
			v6.9h6.4v7.8h-6.4v9.3c0,1,0.2,1.7,0.7,2.1c0.4,0.4,1.1,0.6,2,0.6c0.6,0,1.3-0.1,1.9-0.3c0.6-0.2,1.2-0.4,1.8-0.7v7.5
			c-0.9,0.5-1.9,0.9-3,1.1C-59-158.4-60.2-158.3-61.5-158.3"/>
	</g>
	<g id="g52" transform="translate(238.2988,230.2939)">
		<path id="path54" fill="#454E63" d="M-55.2-158.2c-2.3,0-4.6-0.3-6.8-1c-2.2-0.7-4.3-1.7-6.2-3.1l3.6-5.8c1.6,1,3.2,1.8,4.8,2.4
			c1.6,0.5,3.2,0.8,4.6,0.8c1.6,0,2.4-0.5,2.4-1.5v-0.1c0-0.5-0.4-1-1.1-1.3c-0.7-0.3-1.8-0.7-3.3-1.1c-1.4-0.3-2.6-0.7-3.8-1.2
			c-1.2-0.5-2.2-1-3.1-1.7c-0.9-0.7-1.6-1.5-2.1-2.4c-0.5-0.9-0.8-2.1-0.8-3.5v-0.1c0-1.5,0.3-2.7,0.8-3.9c0.6-1.1,1.3-2.1,2.3-2.8
			c1-0.8,2.1-1.3,3.5-1.7c1.3-0.4,2.8-0.6,4.4-0.6c2,0,4,0.3,6,0.8c2,0.6,3.7,1.3,5.3,2.4l-3.3,6.1c-1.4-0.8-2.9-1.4-4.3-1.8
			c-1.5-0.5-2.7-0.7-3.8-0.7c-0.7,0-1.3,0.1-1.7,0.4c-0.4,0.3-0.6,0.6-0.6,0.9v0.1c0,0.5,0.4,1,1.1,1.3c0.8,0.3,1.9,0.7,3.3,1.1
			c1.4,0.4,2.6,0.8,3.8,1.2c1.2,0.5,2.2,1,3.1,1.7c0.9,0.7,1.6,1.5,2.1,2.4c0.5,0.9,0.8,2.1,0.8,3.4v0.1c0,1.5-0.3,2.8-0.8,4
			c-0.5,1.1-1.3,2.1-2.3,2.9c-1,0.8-2.2,1.4-3.5,1.7C-52-158.4-53.5-158.2-55.2-158.2"/>
	</g>
	<g id="g56" transform="translate(258.355,230.2583)">
		<path id="path58" fill="#00B3FF" d="M-46.8-158.1c-2.1,0-4-0.4-5.7-1.1c-1.8-0.8-3.3-1.8-4.5-3.1c-1.3-1.3-2.3-2.8-3-4.5
			c-0.7-1.7-1.1-3.6-1.1-5.5v-0.1c0-1.9,0.4-3.8,1.1-5.5c0.7-1.7,1.7-3.3,3-4.6c1.3-1.3,2.8-2.3,4.6-3.1c1.8-0.8,3.8-1.1,6-1.1
			c2.8,0,5.2,0.6,7.1,1.7c1.9,1.1,3.4,2.6,4.6,4.5l-6.5,4.9c-0.7-0.9-1.4-1.6-2.2-2.1c-0.8-0.5-1.8-0.8-2.9-0.8
			c-0.8,0-1.5,0.2-2.2,0.5c-0.7,0.3-1.2,0.8-1.7,1.3c-0.5,0.6-0.8,1.2-1.1,1.9c-0.3,0.7-0.4,1.5-0.4,2.4v0.1c0,0.9,0.1,1.7,0.4,2.5
			c0.3,0.8,0.6,1.4,1.1,2c0.5,0.6,1,1,1.7,1.3s1.4,0.5,2.2,0.5c1.1,0,2.1-0.3,2.9-0.8c0.8-0.5,1.6-1.2,2.4-2.1l6.4,4.7
			c-1.3,1.9-2.9,3.4-4.8,4.6C-41.4-158.7-43.8-158.1-46.8-158.1"/>
	</g>
	<g id="g60" transform="translate(277.3716,234.5557)">
		<path id="path62" fill="#00B3FF" d="M-38.9-168.5c1.4,0,2.6-0.4,3.4-1.2c0.9-0.8,1.3-1.9,1.3-3.3v-1.3c-0.5-0.2-1-0.4-1.7-0.5
			c-0.7-0.1-1.3-0.2-2.1-0.2c-1.4,0-2.5,0.3-3.3,0.9c-0.8,0.6-1.1,1.4-1.1,2.5v0.1c0,0.9,0.3,1.7,1,2.2
			C-40.7-168.7-39.9-168.5-38.9-168.5 M-42.4-162.4c-1.3,0-2.5-0.2-3.6-0.6c-1.1-0.4-2.1-0.9-2.9-1.6c-0.8-0.7-1.5-1.6-2-2.6
			c-0.5-1-0.7-2.3-0.7-3.6v-0.1c0-1.4,0.3-2.7,0.8-3.8c0.5-1.1,1.2-2,2.2-2.7c0.9-0.7,2.1-1.2,3.4-1.6c1.3-0.4,2.8-0.6,4.4-0.6
			c1.3,0,2.5,0.1,3.7,0.3c1.2,0.2,2.1,0.5,2.9,0.7v-0.5c0-1.4-0.4-2.5-1.3-3.3c-0.9-0.8-2.3-1.2-4.1-1.2c-1.5,0-2.8,0.1-4,0.4
			c-1.2,0.3-2.4,0.6-3.6,1.1l-2-6.8c1.6-0.6,3.2-1.2,4.9-1.5c1.7-0.4,3.8-0.6,6.2-0.6c2.5,0,4.5,0.3,6.3,0.9
			c1.7,0.6,3.1,1.4,4.2,2.5c1,1,1.8,2.2,2.3,3.7c0.5,1.4,0.7,3.1,0.7,5v15.8h-9.5v-2.8c-0.9,1-2.1,1.9-3.4,2.5
			C-39-162.7-40.6-162.4-42.4-162.4"/>
	</g>
	<g id="g64" transform="translate(298.5381,230.2939)">
		<path id="path66" fill="#00B3FF" d="M-30.2-158.2c-2.3,0-4.6-0.3-6.8-1c-2.2-0.7-4.3-1.7-6.2-3.1l3.6-5.8c1.6,1,3.2,1.8,4.8,2.4
			c1.6,0.5,3.2,0.8,4.6,0.8c1.6,0,2.4-0.5,2.4-1.5v-0.1c0-0.5-0.4-1-1.1-1.3c-0.7-0.3-1.8-0.7-3.3-1.1c-1.4-0.3-2.6-0.7-3.8-1.2
			c-1.2-0.5-2.2-1-3.1-1.7c-0.9-0.7-1.6-1.5-2.1-2.4c-0.5-0.9-0.8-2.1-0.8-3.5v-0.1c0-1.5,0.3-2.7,0.8-3.9c0.6-1.1,1.3-2.1,2.3-2.8
			c1-0.8,2.1-1.3,3.5-1.7c1.3-0.4,2.8-0.6,4.4-0.6c2,0,4,0.3,6,0.8c2,0.6,3.7,1.3,5.3,2.4l-3.3,6.1c-1.4-0.8-2.9-1.4-4.3-1.8
			c-1.5-0.5-2.7-0.7-3.8-0.7c-0.7,0-1.3,0.1-1.7,0.4c-0.4,0.3-0.6,0.6-0.6,0.9v0.1c0,0.5,0.4,1,1.1,1.3c0.8,0.3,1.9,0.7,3.3,1.1
			c1.4,0.4,2.6,0.8,3.8,1.2c1.2,0.5,2.2,1,3.1,1.7c0.9,0.7,1.6,1.5,2.1,2.4c0.5,0.9,0.8,2.1,0.8,3.4v0.1c0,1.5-0.3,2.8-0.8,4
			c-0.5,1.1-1.3,2.1-2.3,2.9c-1,0.8-2.2,1.4-3.5,1.7C-27-158.4-28.5-158.2-30.2-158.2"/>
	</g>
	<g id="g68" transform="translate(316.98,230.3301)">
		<path id="path70" fill="#00B3FF" d="M-22.5-158.3c-2.9,0-5.2-0.7-6.8-2.1c-1.6-1.4-2.4-3.7-2.4-7v-11.1H-35v-7.8h3.2v-6.9h9.7v6.9
			h6.4v7.8h-6.4v9.3c0,1,0.2,1.7,0.7,2.1c0.4,0.4,1.1,0.6,2,0.6c0.6,0,1.3-0.1,1.9-0.3c0.6-0.2,1.2-0.4,1.8-0.7v7.5
			c-0.9,0.5-1.9,0.9-3,1.1C-19.9-158.4-21.2-158.3-22.5-158.3"/>
	</g>
	<path id="path72" fill="#00B3FF" d="M305.6,44.1h9.7v27.4h-9.7V44.1z M305.4,34.5h10.1v7.1h-10.1V34.5z"/>
	<g id="g74" transform="translate(335.4258,250.0996)">
		<path id="path76" fill="#00B3FF" d="M-14.9-206h9.7v3.9c0.4-0.6,0.9-1.1,1.5-1.7c0.5-0.5,1.1-1,1.8-1.4c0.7-0.4,1.4-0.7,2.2-1
			s1.7-0.4,2.7-0.4c3,0,5.3,0.9,6.9,2.7c1.6,1.8,2.5,4.3,2.5,7.4v17.9H2.6v-14.8c0-1.5-0.4-2.7-1.1-3.4C0.9-197.7,0-198-1.2-198
			c-1.2,0-2.1,0.4-2.9,1.2c-0.8,0.8-1.1,1.9-1.1,3.4v14.8h-9.7V-206z"/>
	</g>
	<g id="g78" transform="translate(368.0522,237.6719)">
		<path id="path80" fill="#00B3FF" d="M-1.3-176c1.6,0,3-0.5,4-1.5c1-1,1.6-2.3,1.6-3.8v-0.1c0-1.5-0.5-2.8-1.6-3.8
			c-1-1-2.4-1.5-4-1.5c-1.7,0-3,0.5-4.1,1.5c-1,1-1.6,2.3-1.6,3.8v0.1c0,1.5,0.5,2.8,1.6,3.8C-4.3-176.5-3-176-1.3-176 M-1.9-157.9
			c-2.7,0-5.1-0.3-7.4-0.8c-2.2-0.5-4.4-1.3-6.4-2.3l3.1-6.4c1.5,0.8,3,1.4,4.5,1.9c1.5,0.5,3.2,0.7,5.1,0.7c2.4,0,4.2-0.6,5.4-1.7
			c1.2-1.1,1.8-2.8,1.8-5v-1.1c-1,1.1-2.1,2.1-3.4,2.9c-1.3,0.8-3,1.2-5,1.2c-1.7,0-3.3-0.3-4.7-0.9s-2.8-1.4-3.9-2.5
			c-1.1-1.1-2-2.4-2.6-4c-0.6-1.6-1-3.3-1-5.3v-0.1c0-2,0.3-3.7,1-5.3c0.6-1.6,1.5-2.9,2.6-4c1.1-1.1,2.3-1.9,3.8-2.5
			c1.4-0.6,2.9-0.9,4.5-0.9c2.1,0,3.7,0.4,5.1,1.1c1.3,0.7,2.5,1.7,3.5,2.7v-3.2h9.6v20.8c0,2.5-0.3,4.7-0.9,6.5
			c-0.6,1.8-1.5,3.3-2.7,4.5c-1.2,1.2-2.9,2.2-4.8,2.9C3.4-158.3,1-157.9-1.9-157.9"/>
	</g>
</g>
</svg>
