<?xml version="1.0" encoding="utf-8"?>
<!DOCTYPE svg PUBLIC "-//W3C//DTD SVG 1.1//EN" "http://www.w3.org/Graphics/SVG/1.1/DTD/svg11.dtd">
<svg version="1.1" id="remoter_logo" width="110px" height="102px" xmlns="http://www.w3.org/2000/svg" xmlns:xlink="https://www.w3.org/1999/xlink" viewBox="0 0 110 102" enable-background="new 0 0 110 102" preserveAspectRatio="xMinYMin meet">
<g id="g12" transform="scale(0.1)">
	<g id="rays">
		<path id="path14" fill="#7BBCAF" d="M432.8,325.4L617.9,4.8H460.8L344.1,325.4H432.8"/>
		<path id="path16" fill="#7BBCAF" d="M322.6,4.8H192.8v320.5h73.3L322.6,4.8"/>
		<path id="path18" fill="#7BBCAF" d="M810.5,4.8L541.6,325.4h37.3V417L929,123.3V4.8H810.5"/>
		<path id="path20" fill="#7BBCAF" d="M578.9,741H929V611.2l-350.1,61.7V741"/>
		<path id="path22" fill="#7BBCAF" d="M578.9,582.7l-28,28L929,473.1V316L578.9,518.1V582.7"/>
	</g>
	<path id="letter-r" fill="#222E59" d="M316.7,560.2v-43.8h87.6l-43.8,43.8H316.7z M524.8,379.5H196.1V741h120.5v-60.3h43.8
		l43.8,43.8V741h120.5v-60.3l-60.3-60.2l60.3-60.3V379.5"/>
	<g id="remoter-text">
		<path id="path26" fill="#222E59" d="M59.8,949.1c5.8,0,10.3-1.3,13.5-3.9c3.1-2.6,4.7-6.1,4.7-10.5v-0.4c0-4.9-1.7-8.5-4.9-10.9
			c-3.3-2.4-7.7-3.6-13.4-3.6H37.4v29.4H59.8z M3.5,890.4h57.8c9.4,0,17.4,1.2,23.9,3.5c6.5,2.3,11.8,5.6,15.9,9.8
			c7.2,7,10.8,16.5,10.8,28.5v0.4c0,9.4-2.3,17.2-6.8,23.4c-4.5,6.2-10.7,10.9-18.4,14.1l29.2,42.7H76.9l-24.6-37.1h-0.3H37.4v37.1
			H3.5V890.4"/>
		<path id="path28" fill="#222E59" d="M164.1,890.4h98.2v28.8h-64.8v18.5h58.7v26.8h-58.7v19.4h65.7v28.8h-99.1V890.4"/>
		<path id="path30" fill="#222E59" d="M315.6,890.4h35.8l29.2,47.3l29.2-47.3h35.8v122.3h-33.7v-70.2l-31.2,47.8h-0.7l-31-47.5v69.9
			h-33.4V890.4"/>
		<path id="path32" fill="#222E59" d="M563.9,984.6c4.6,0,8.9-0.9,12.8-2.6c3.9-1.7,7.1-4.1,9.8-7.1c2.7-3,4.8-6.4,6.3-10.4
			c1.5-4,2.3-8.2,2.3-12.6v-0.3c0-4.5-0.8-8.6-2.3-12.6c-1.5-4-3.7-7.5-6.5-10.5c-2.8-3-6.1-5.4-10-7.2c-3.9-1.8-8.1-2.7-12.8-2.7
			c-4.7,0-8.9,0.8-12.7,2.6c-3.8,1.8-7.1,4.1-9.8,7.1c-2.7,3-4.9,6.4-6.3,10.4c-1.5,4-2.2,8.2-2.2,12.6v0.4c0,4.4,0.8,8.6,2.3,12.6
			c1.5,3.9,3.6,7.4,6.4,10.5c2.7,3,6,5.5,9.9,7.3C555,983.7,559.2,984.6,563.9,984.6L563.9,984.6z M563.6,1015.2
			c-9.4,0-18.2-1.7-26.2-5c-8-3.3-15-7.9-20.8-13.6c-5.8-5.7-10.4-12.4-13.7-20.1c-3.3-7.7-5-15.9-5-24.6v-0.3c0-8.8,1.7-17,5-24.8
			c3.3-7.7,8-14.5,13.9-20.3c5.9-5.8,12.9-10.3,20.9-13.6c8.1-3.3,16.8-5,26.2-5c9.4,0,18.2,1.7,26.2,5c8,3.3,15,7.9,20.8,13.6
			c5.8,5.7,10.4,12.4,13.7,20.1c3.3,7.7,5,15.9,5,24.6v0.4c0,8.7-1.7,17-5,24.7c-3.3,7.8-7.9,14.5-13.9,20.3
			c-5.9,5.8-12.9,10.3-21,13.7C581.8,1013.5,573.1,1015.2,563.6,1015.2"/>
		<path id="path34" fill="#222E59" d="M712.1,920.1h-36.7v-29.7h107.3v29.7H746v92.6h-33.9V920.1"/>
		<path id="path36" fill="#222E59" d="M832.5,890.4h98.2v28.8h-64.8v18.5h58.7v26.8h-58.7v19.4h65.7v28.8h-99.1V890.4"/>
		<path id="path38" fill="#222E59" d="M1040.2,949.1c5.8,0,10.3-1.3,13.4-3.9c3.2-2.6,4.7-6.1,4.7-10.5v-0.4c0-4.9-1.7-8.5-4.9-10.9
			c-3.3-2.4-7.8-3.6-13.4-3.6h-22.2v29.4H1040.2z M984,890.4h57.8c9.4,0,17.4,1.2,23.9,3.5c6.5,2.3,11.8,5.6,15.9,9.8
			c7.2,7,10.8,16.5,10.8,28.5v0.4c0,9.4-2.3,17.2-6.8,23.4c-4.6,6.2-10.7,10.9-18.4,14.1l29.2,42.7h-39.1l-24.6-37.1h-0.4h-14.5
			v37.1H984V890.4"/>
	</g>
</g>
</svg>