<?xml version="1.0" encoding="utf-8"?>
<!DOCTYPE svg PUBLIC "-//W3C//DTD SVG 1.1//EN" "http://www.w3.org/Graphics/SVG/1.1/DTD/svg11.dtd">
<svg version="1.1"
	 id="svg2" xmlns:dc="http://purl.org/dc/elements/1.1/" xmlns:cc="http://creativecommons.org/ns#" xmlns:rdf="http://www.w3.org/1999/02/22-rdf-syntax-ns#" xmlns:svg="http://www.w3.org/2000/svg"
	 xmlns="http://www.w3.org/2000/svg" xmlns:xlink="http://www.w3.org/1999/xlink" x="0px" y="0px" width="84px" height="84px"
	 viewBox="51.333 51.333 84 84" enable-background="new 51.333 51.333 84 84" xml:space="preserve">
<g>
	<path id="path14" fill="#7BBCAF" d="M78.714,87.905L99.83,51.333H81.906l-13.31,36.572H78.714"/>
	<path id="path16" fill="#7BBCAF" d="M66.143,51.333h-14.81v36.572h8.364L66.143,51.333"/>
	<path id="path18" fill="#7BBCAF" d="M121.815,51.333L91.129,87.905h4.261v10.459l39.942-33.514V51.333H121.815"/>
	<path id="path20" fill="#7BBCAF" d="M95.391,135.333h39.942v-14.811l-39.942,7.044V135.333"/>
	<path id="path22" fill="#7BBCAF" d="M95.391,117.263l-3.2,3.198l43.143-15.703V86.835l-39.942,23.062V117.263"/>
	<path id="path24" fill="#222E59" d="M65.465,114.703v-4.995h10l-5.001,4.995H65.465z M89.213,94.08H51.71v41.253h13.755v-6.878
		h4.999l5.001,4.999v1.879h13.747v-6.88l-6.875-6.873l6.875-6.88V94.08"/>
</g>
</svg>
